<svg height="512" viewBox="0 0 256 256" width="512" xmlns="http://www.w3.org/2000/svg"><rect fill="#cecece" height="151.106" rx="13.665" width="219.26" x="18.37" y="50.711"/><path d="m28.37 188.153v-123.777a13.681 13.681 0 0 1 13.665-13.665h-10a13.681 13.681 0 0 0 -13.665 13.665v123.777a13.681 13.681 0 0 0 13.665 13.665h10a13.681 13.681 0 0 1 -13.665-13.665z" fill="#afafaf"/><path d="m227.63 188.153v-123.777a13.681 13.681 0 0 0 -13.665-13.665h10a13.681 13.681 0 0 1 13.665 13.665v123.777a13.681 13.681 0 0 1 -13.665 13.665h-10a13.681 13.681 0 0 0 13.665-13.665z" fill="#e2e2e2"/><rect fill="#63bce7" height="122.288" rx="5.256" width="202.442" x="26.779" y="59.12"/><path d="m36.779 176.153v-111.777a5.271 5.271 0 0 1 5.256-5.256h-10a5.271 5.271 0 0 0 -5.256 5.256v111.777a5.271 5.271 0 0 0 5.256 5.256h10a5.271 5.271 0 0 1 -5.256-5.256z" fill="#6377e7"/><path d="m219.221 176.153v-111.777a5.271 5.271 0 0 0 -5.256-5.256h10a5.271 5.271 0 0 1 5.256 5.256v111.777a5.271 5.271 0 0 1 -5.256 5.256h-10a5.271 5.271 0 0 0 5.256-5.256z" fill="#63e2e7"/><path d="m89.809 223.975h76.383v9.197h-76.383z" fill="#9e9e9e"/><path d="m89.809 223.975h10v9.197h-10z" fill="#707070"/><path d="m100.67 201.817h54.659v22.158h-54.659z" fill="#cecece"/><path d="m100.67 201.817h10v22.158h-10z" fill="#afafaf"/><circle cx="128" cy="191.613" fill="#9e9e9e" r="4.5"/><rect fill="#cecece" height="132.343" rx="10.6" width="154.485" x="50.757" y="11.854"/><path d="m60.757 133.6v-111.146a10.6 10.6 0 0 1 10.6-10.6h-10a10.6 10.6 0 0 0 -10.6 10.6v111.146a10.6 10.6 0 0 0 10.6 10.6h10a10.6 10.6 0 0 1 -10.6-10.6z" fill="#afafaf"/><path d="m195.243 133.6v-111.146a10.6 10.6 0 0 0 -10.6-10.6h10a10.6 10.6 0 0 1 10.6 10.6v111.146a10.6 10.6 0 0 1 -10.6 10.6h-10a10.6 10.6 0 0 0 10.6-10.6z" fill="#e2e2e2"/><path d="m205.242 22.456a10.6 10.6 0 0 0 -10.6-10.6h-133.283a10.6 10.6 0 0 0 -10.6 10.6v18.449h154.483z" fill="#f8af23"/><path d="m71.359 11.854h-10a10.6 10.6 0 0 0 -10.6 10.6v18.451h10v-18.449a10.6 10.6 0 0 1 10.6-10.602z" fill="#f87023"/><path d="m184.641 11.854h10a10.6 10.6 0 0 1 10.6 10.6v18.451h-10v-18.449a10.6 10.6 0 0 0 -10.6-10.602z" fill="#f8d323"/><circle cx="69.682" cy="26.38" fill="#f46275" r="4.842"/><circle cx="88.332" cy="26.38" fill="#f46275" r="4.842"/><circle cx="106.981" cy="26.38" fill="#f46275" r="4.842"/><rect fill="#f46275" height="7.378" rx="3.689" width="68.643" x="122.517" y="23.008"/><path d="m156.586 73.244h-12.462v-12.462a13.179 13.179 0 0 0 -13.164-13.164h-12.286a13.179 13.179 0 0 0 -13.164 13.164v12.462h-12.462a13.179 13.179 0 0 0 -13.164 13.164v12.286a13.179 13.179 0 0 0 13.164 13.164h12.462v12.462a13.179 13.179 0 0 0 13.164 13.164h12.286a13.179 13.179 0 0 0 13.164-13.164v-12.462h12.462a13.179 13.179 0 0 0 13.164-13.164v-12.286a13.179 13.179 0 0 0 -13.164-13.164zm-63.538 33.349a7.907 7.907 0 0 1 -7.9-7.9v-12.285a7.907 7.907 0 0 1 7.9-7.9h31.769a2.633 2.633 0 1 0 0-5.266h-14.042v-12.46a7.907 7.907 0 0 1 7.9-7.9h12.285a7.907 7.907 0 0 1 7.9 7.9v29.136h-30.717a2.633 2.633 0 0 0 -2.633 2.633v14.042zm71.437-7.9a7.907 7.907 0 0 1 -7.9 7.9h-31.768a2.633 2.633 0 0 0 0 5.266h14.042v12.461a7.907 7.907 0 0 1 -7.9 7.9h-12.285a7.907 7.907 0 0 1 -7.9-7.9v-29.136h30.716a2.633 2.633 0 0 0 2.633-2.633v-14.041h12.462a7.907 7.907 0 0 1 7.9 7.9z" fill="#3f3679"/><path d="m121.307 63.415a2.633 2.633 0 1 1 -2.633-2.633 2.633 2.633 0 0 1 2.633 2.633z" fill="#3f3679"/><path d="m133.593 121.687a2.633 2.633 0 1 1 -2.633-2.633 2.633 2.633 0 0 1 2.633 2.633z" fill="#3f3679"/><circle cx="195.079" cy="147.267" fill="#f8af23" r="34.142"/><path d="m195.079 113.125a34.4 34.4 0 0 0 -5 .368 34.142 34.142 0 0 1 0 67.547 34.142 34.142 0 1 0 5-67.915z" fill="#f8d323"/><g fill="#3f3679"><path d="m128 197.613a6 6 0 1 0 -6-6 6.007 6.007 0 0 0 6 6zm0-9a3 3 0 1 1 -3 3 3 3 0 0 1 3-3z"/><path d="m27.323 242.646h-18a1.5 1.5 0 1 0 0 3h18a1.5 1.5 0 1 0 0-3z"/><path d="m246.68 242.646h-18a1.5 1.5 0 0 0 0 3h18a1.5 1.5 0 0 0 0-3z"/><path d="m218.479 242.646h-180.958a1.5 1.5 0 0 0 0 3h180.958a1.5 1.5 0 0 0 0-3z"/><path d="m9.32 234.673h237.36a1.5 1.5 0 0 0 0-3h-78.989v-7.7a1.5 1.5 0 0 0 -1.5-1.5h-9.362v-19.156h67.137a15.182 15.182 0 0 0 15.164-15.165v-123.776a15.182 15.182 0 0 0 -15.164-15.165h-17.224v-26.757a12.113 12.113 0 0 0 -12.1-12.1h-133.285a12.114 12.114 0 0 0 -12.1 12.1v26.757h-17.222a15.182 15.182 0 0 0 -15.165 15.165v123.776a15.182 15.182 0 0 0 15.165 15.165h67.135v19.158h-9.361a1.5 1.5 0 0 0 -1.5 1.5v7.7h-78.989a1.5 1.5 0 1 0 0 3zm218.4-101.7a35.82 35.82 0 0 0 -20.979-19.382v-52.971h17.224a3.76 3.76 0 0 1 3.755 3.756zm-32.642 46.932a32.642 32.642 0 1 1 32.642-32.642 32.678 32.678 0 0 1 -32.641 32.645zm32.642-18.351v14.6a3.76 3.76 0 0 1 -3.755 3.756h-14.6a35.846 35.846 0 0 0 18.356-18.353zm-23.979-48.862a35.629 35.629 0 0 0 -44 30h-98.384a9.111 9.111 0 0 1 -9.1-9.1v-91.187h151.485zm-142.385 33h98.12c-.023.521-.04 1.043-.04 1.569a35.687 35.687 0 0 0 21.351 32.642h-148.752a3.76 3.76 0 0 1 -3.756-3.756v-111.771a3.76 3.76 0 0 1 3.756-3.756h17.222v72.98a12.114 12.114 0 0 0 12.1 12.1zm133.285-132.338a9.112 9.112 0 0 1 9.1 9.1v16.951h-151.484v-16.949a9.112 9.112 0 0 1 9.1-9.1zm-174.771 174.798v-123.776a12.178 12.178 0 0 1 12.165-12.165h17.222v5.409h-17.222a6.764 6.764 0 0 0 -6.756 6.756v111.776a6.764 6.764 0 0 0 6.756 6.756h191.931a6.763 6.763 0 0 0 6.755-6.756v-111.776a6.763 6.763 0 0 0 -6.755-6.756h-17.224v-5.409h17.224a12.178 12.178 0 0 1 12.164 12.165v123.776a12.178 12.178 0 0 1 -12.164 12.165h-191.931a12.179 12.179 0 0 1 -12.165-12.165zm82.3 15.165h51.659v19.158h-51.659zm-10.861 22.159h73.383v6.2h-73.383z"/><path d="m69.682 32.722a6.342 6.342 0 1 0 -6.342-6.342 6.349 6.349 0 0 0 6.342 6.342zm0-9.684a3.342 3.342 0 1 1 -3.342 3.342 3.345 3.345 0 0 1 3.342-3.342z"/><path d="m88.332 32.722a6.342 6.342 0 1 0 -6.342-6.342 6.349 6.349 0 0 0 6.342 6.342zm0-9.684a3.342 3.342 0 1 1 -3.342 3.342 3.345 3.345 0 0 1 3.342-3.342z"/><path d="m106.981 32.722a6.342 6.342 0 1 0 -6.342-6.342 6.349 6.349 0 0 0 6.342 6.342zm0-9.684a3.342 3.342 0 1 1 -3.342 3.342 3.345 3.345 0 0 1 3.342-3.342z"/><path d="m126.206 31.886h61.265a5.189 5.189 0 1 0 0-10.378h-61.265a5.189 5.189 0 1 0 0 10.378zm0-7.378h61.265a2.189 2.189 0 1 1 0 4.378h-61.265a2.189 2.189 0 1 1 0-4.378z"/><path d="m177.651 152.922v6.708a1.514 1.514 0 0 1 -1.514 1.514h-3.685a1.514 1.514 0 0 1 -1.514-1.514v-24.73a1.514 1.514 0 0 1 1.514-1.514h9.36q4.945 0 7.537 2.453a8.681 8.681 0 0 1 2.591 6.614 9.109 9.109 0 0 1 -1.159 4.613 8.026 8.026 0 0 1 -3.435 3.18 12.093 12.093 0 0 1 -5.534 1.158h-2.647a1.514 1.514 0 0 0 -1.514 1.518zm7.458-10.464q0-3.65-4.043-3.651h-1.9a1.514 1.514 0 0 0 -1.514 1.514v4.2a1.514 1.514 0 0 0 1.514 1.514h1.9q4.041-.005 4.043-3.578z"/><path d="m218.073 135.6-8.3 15.989a1.514 1.514 0 0 0 -.17.7v7.342a1.514 1.514 0 0 1 -1.514 1.514h-3.725a1.514 1.514 0 0 1 -1.514-1.514v-7.342a1.514 1.514 0 0 0 -.17-.7l-8.3-15.989a1.514 1.514 0 0 1 1.344-2.211h4.244a1.514 1.514 0 0 1 1.369.867l3.56 7.539a1.514 1.514 0 0 0 2.738 0l3.56-7.539a1.514 1.514 0 0 1 1.369-.867h4.165a1.514 1.514 0 0 1 1.344 2.211z"/></g></svg>